<?xml version="1.0" encoding="UTF-8"?>
<svg version="1.1" xmlns="http://www.w3.org/2000/svg" width="23" height="23">
<path d="M0 0 C7.59 0 15.18 0 23 0 C23 7.59 23 15.18 23 23 C15.41 23 7.82 23 0 23 C0 15.41 0 7.82 0 0 Z " fill="#486730" transform="translate(0,0)"/>
<path d="M0 0 C7.59 0 15.18 0 23 0 C23 7.59 23 15.18 23 23 C15.41 23 7.82 23 0 23 C0 15.41 0 7.82 0 0 Z M2 6 C1.67 6.33 1.34 6.66 1 7 C0.40593624 11.92224254 0.43889628 14.94111651 3.4375 19 C6.01662772 21.67080288 7.85506518 22.50770801 11.5625 22.6875 C15.74024036 22.35638061 18.08631133 21.09579422 21 18 C22.72869779 14.54260443 22.48966895 10.78024432 22 7 C20.20606332 4.12970131 19.01736724 2.50868362 16 1 C9.56096377 0.11447439 6.18751672 0.6347442 2 6 Z " fill="#080B04" transform="translate(0,0)"/>
<path d="M0 0 C2.5625 1.375 2.5625 1.375 4 3 C4 3.66 4 4.32 4 5 C3 5 2 5 1 5 C0.01 5.495 0.01 5.495 -1 6 C-1 6.99 -1 7.98 -1 9 C-1.99 9.495 -1.99 9.495 -3 10 C-2.01 10.33 -1.02 10.66 0 11 C0 11.66 0 12.32 0 13 C-0.66 13 -1.32 13 -2 13 C-2.33 14.65 -2.66 16.3 -3 18 C-4.875 17.875 -4.875 17.875 -7 17 C-8.25 13.9375 -8.25 13.9375 -9 11 C-8.01 10.67 -7.02 10.34 -6 10 C-6.66 9.34 -7.32 8.68 -8 8 C-8.66 7.01 -9.32 6.02 -10 5 C-12.16343011 7.03268602 -12.16343011 7.03268602 -14 10 C-13.52264808 3.67508711 -13.52264808 3.67508711 -11.5 1.0625 C-7.6862273 -0.5583534 -4.07972169 -0.56891532 0 0 Z " fill="#708855" transform="translate(16,1)"/>
<path d="M0 0 C2.01136276 2.55991624 3.62845496 5.04590299 5 8 C4.01 8.33 3.02 8.66 2 9 C2.33 10.65 2.66 12.3 3 14 C0 14 0 14 -1.6875 12.5 C-2.120625 12.005 -2.55375 11.51 -3 11 C-2.34 11 -1.68 11 -1 11 C-1.33 10.34 -1.66 9.68 -2 9 C-2.66 9 -3.32 9 -4 9 C-4.33 9.66 -4.66 10.32 -5 11 C-5 8.36 -5 5.72 -5 3 C-4.01 3.495 -4.01 3.495 -3 4 C-2.67 3.34 -2.34 2.68 -2 2 C-1.34 2 -0.68 2 0 2 C0 1.34 0 0.68 0 0 Z " fill="#4D663D" transform="translate(6,4)"/>
<path d="M0 0 C0.33 0.99 0.66 1.98 1 3 C3.11187252 5.11187252 6.1905299 5.38096422 9 6 C11.3892395 5.26878594 11.3892395 5.26878594 13 4 C13.66 5.32 14.32 6.64 15 8 C10.9876467 10.6749022 7.71620266 10.81769538 3 10 C-0.0625 7.75 -0.0625 7.75 -2 5 C-2 3.68 -2 2.36 -2 1 C-1.34 0.67 -0.68 0.34 0 0 Z " fill="#5B6D4F" transform="translate(4,12)"/>
<path d="M0 0 C1.32 0.99 2.64 1.98 4 3 C4.99 2.01 5.98 1.02 7 0 C7 1.32 7 2.64 7 4 C6.01 4.495 6.01 4.495 5 5 C5.99 5.33 6.98 5.66 8 6 C8 6.66 8 7.32 8 8 C7.34 8 6.68 8 6 8 C5.67 9.65 5.34 11.3 5 13 C3.125 12.875 3.125 12.875 1 12 C-0.25 8.9375 -0.25 8.9375 -1 6 C-0.01 5.67 0.98 5.34 2 5 C1.34 4.34 0.68 3.68 0 3 C0 2.01 0 1.02 0 0 Z " fill="#9CC25F" transform="translate(8,6)"/>
<path d="M0 0 C0.66 0.33 1.32 0.66 2 1 C2 3.97 2 6.94 2 10 C1.01 10.495 1.01 10.495 0 11 C-1.7578125 5.04296875 -1.7578125 5.04296875 -2 3 C-1.34 2.01 -0.68 1.02 0 0 Z " fill="#637455" transform="translate(20,6)"/>
<path d="M0 0 C-0.33 0.66 -0.66 1.32 -1 2 C-1.99 2 -2.98 2 -4 2 C-4 2.66 -4 3.32 -4 4 C-4.66 4.66 -5.32 5.32 -6 6 C-6.66 6.99 -7.32 7.98 -8 9 C-7.5129959 2.54719562 -7.5129959 2.54719562 -5.125 0 C-3 -1 -3 -1 0 0 Z " fill="#646F5C" transform="translate(10,2)"/>
<path d="M0 0 C1.32 0.66 2.64 1.32 4 2 C3.67 3.32 3.34 4.64 3 6 C1.0625 5.625 1.0625 5.625 -1 5 C-1.33 4.34 -1.66 3.68 -2 3 C-1.34 3 -0.68 3 0 3 C0 2.01 0 1.02 0 0 Z " fill="#3D5829" transform="translate(5,12)"/>
<path d="M0 0 C1.32 0 2.64 0 4 0 C3.67 1.65 3.34 3.3 3 5 C1.68 4.67 0.36 4.34 -1 4 C-0.67 2.68 -0.34 1.36 0 0 Z " fill="#86C830" transform="translate(10,14)"/>
<path d="M0 0 C1.9375 0.8125 1.9375 0.8125 4 2 C4.33 2.99 4.66 3.98 5 5 C4.360625 5.12375 3.72125 5.2475 3.0625 5.375 C2.0415625 5.684375 2.0415625 5.684375 1 6 C0.67 6.66 0.34 7.32 0 8 C0 5.36 0 2.72 0 0 Z " fill="#586C3B" transform="translate(1,7)"/>
<path d="M0 0 C0.99 0.33 1.98 0.66 3 1 C3 1.66 3 2.32 3 3 C3.66 3 4.32 3 5 3 C4.67 3.99 4.34 4.98 4 6 C2.68 6 1.36 6 0 6 C0.33 5.01 0.66 4.02 1 3 C0.67 2.01 0.34 1.02 0 0 Z " fill="#4C5C4A" transform="translate(15,3)"/>
<path d="M0 0 C0.99 0 1.98 0 3 0 C3.33 0.99 3.66 1.98 4 3 C3.01 3.99 2.02 4.98 1 6 C0 5 0 5 -0.0625 2.4375 C-0.041875 1.633125 -0.02125 0.82875 0 0 Z " fill="#607553" transform="translate(10,4)"/>
</svg>
