<?xml version="1.0" encoding="UTF-8"?>
<svg version="1.1" xmlns="http://www.w3.org/2000/svg" width="73" height="76">
<path d="M0 0 C24.09 0 48.18 0 73 0 C73 25.08 73 50.16 73 76 C48.91 76 24.82 76 0 76 C0 50.92 0 25.84 0 0 Z " fill="#61842B" transform="translate(0,0)"/>
<path d="M0 0 C24.09 0 48.18 0 73 0 C73 9.57 73 19.14 73 29 C71.18902091 26.28353137 69.70130206 23.5753071 68.1875 20.6875 C65.82277027 16.30664935 63.36166458 12.65828204 60 9 C59.34 9.66 58.68 10.32 58 11 C58.68835937 11.80050781 58.68835937 11.80050781 59.390625 12.6171875 C68.41469227 23.57498346 70.18865057 33.13240997 69 47 C68.28210323 50.01516644 67.41418604 52.23055233 66 55 C64.79649997 51.38949992 65.32027888 49.73846617 66 46 C66.25006686 44.27373198 66.47798458 42.54415759 66.6875 40.8125 C66.79449219 39.97332031 66.90148437 39.13414063 67.01171875 38.26953125 C67.20671819 35.71381435 67.20671819 35.71381435 65 33 C64.4225 33.2475 63.845 33.495 63.25 33.75 C62.5075 33.8325 61.765 33.915 61 34 C58.75 32.0625 58.75 32.0625 57 30 C57.33 29.34 57.66 28.68 58 28 C60.475 28.99 60.475 28.99 63 30 C62.566875 29.37351562 62.13375 28.74703125 61.6875 28.1015625 C61.130625 27.28429687 60.57375 26.46703125 60 25.625 C59.443125 24.81289063 58.88625 24.00078125 58.3125 23.1640625 C57 21 57 21 57 19 C56.68521554 17.66216607 56.35412344 16.32796291 56 15 C56.99 15 57.98 15 59 15 C53.85456374 10.35250919 47.74198715 7.51350732 41 6 C41 6.99 41 7.98 41 9 C38.69 9 36.38 9 34 9 C34 8.01 34 7.02 34 6 C26.27857339 8.15540644 20.70880809 10.29119191 15 16 C16.32 15.67 17.64 15.34 19 15 C19.15114765 21.95279171 15.59414993 25.17991482 10.93359375 30.05859375 C10.29550781 30.69925781 9.65742188 31.33992188 9 32 C9 28.19654123 10.13786331 27.22298985 12.5 24.3125 C13.1496875 23.50425781 13.799375 22.69601563 14.46875 21.86328125 C15.22671875 20.94095703 15.22671875 20.94095703 16 20 C14.35 20 12.7 20 11 20 C10.01 22.97 9.02 25.94 8 29 C7.01 28.67 6.02 28.34 5 28 C4.97280444 30.37507855 4.95306753 32.74983964 4.9375 35.125 C4.92912109 35.79015625 4.92074219 36.4553125 4.91210938 37.140625 C4.89217708 41.20681354 5.21109839 45.0120092 6 49 C6.99 48.505 6.99 48.505 8 48 C8.27972656 48.64066406 8.55945312 49.28132813 8.84765625 49.94140625 C13.12086381 59.16109202 18.37439504 65.30853088 28 69 C31.44366654 70.11391328 34.64420652 70.10169341 38.25 70.0625 C39.32765625 70.05347656 40.4053125 70.04445313 41.515625 70.03515625 C42.33546875 70.02355469 43.1553125 70.01195313 44 70 C42.68 69.67 41.36 69.34 40 69 C40.3125 67.0625 40.3125 67.0625 41 65 C41.99 64.67 42.98 64.34 44 64 C44.33 63.01 44.66 62.02 45 61 C45.99 60.67 46.98 60.34 48 60 C48.309375 59.175 48.61875 58.35 48.9375 57.5 C49.288125 56.675 49.63875 55.85 50 55 C51.98 54.505 51.98 54.505 54 54 C54 57.63 54 61.26 54 65 C57.61939504 63.27256146 60.87567603 61.52349243 64 59 C61.43688797 64.9370044 56.3976813 69.01523804 50.5 71.4375 C49.2625 71.7159375 49.2625 71.7159375 48 72 C48.99 72.99 48.99 72.99 50 74 C57.19556427 69.64338044 62.70200275 66.07916122 66.88671875 58.609375 C67.43779297 57.81273438 67.43779297 57.81273438 68 57 C68.66 57 69.32 57 70 57 C70.66 54.36 71.32 51.72 72 49 C72.33 49 72.66 49 73 49 C73 57.91 73 66.82 73 76 C48.91 76 24.82 76 0 76 C0 50.92 0 25.84 0 0 Z " fill="#4A5D2C" transform="translate(0,0)"/>
<path d="M0 0 C1.7074998 1.28062485 3.38263741 2.6072711 5 4 C5.7425 3.175 6.485 2.35 7.25 1.5 C10 -1 10 -1 14 -1 C14 -0.34 14 0.32 14 1 C14.99 1.33 15.98 1.66 17 2 C14.69 2.99 12.38 3.98 10 5 C13.13498292 3.14223235 15.37471432 2.79859524 19 3 C19 3.66 19 4.32 19 5 C17.865625 5.28875 16.73125 5.5775 15.5625 5.875 C14.386875 6.24625 13.21125 6.6175 12 7 C11.67 7.66 11.34 8.32 11 9 C11.53625 8.505 12.0725 8.01 12.625 7.5 C15.59358445 5.62510456 17.55312427 5.76498575 21 6 C21 6.66 21 7.32 21 8 C19.35 8.33 17.7 8.66 16 9 C18.31 9.33 20.62 9.66 23 10 C22.67 11.32 22.34 12.64 22 14 C21.34 14 20.68 14 20 14 C19.505 13.01 19.505 13.01 19 12 C16.83358335 13.66545339 16.83358335 13.66545339 15 16 C15.07415035 19.04016436 15.49137447 20.45068442 17.5625 22.6875 C18.036875 23.120625 18.51125 23.55375 19 24 C19 24.66 19 25.32 19 26 C15.37 26 11.74 26 8 26 C7.67 27.98 7.34 29.96 7 32 C10.00259517 32.33218192 10.00259517 32.33218192 11.6875 30.5 C12.120625 30.005 12.55375 29.51 13 29 C13.99 29.66 14.98 30.32 16 31 C16.99 30.67 17.98 30.34 19 30 C19.66 30.99 20.32 31.98 21 33 C21.33 30.36 21.66 27.72 22 25 C22.66 25 23.32 25 24 25 C23.85892253 26.45880109 23.71197585 27.91703551 23.5625 29.375 C23.48128906 30.18710937 23.40007813 30.99921875 23.31640625 31.8359375 C23 34 23 34 22 36 C21.154375 36.474375 20.30875 36.94875 19.4375 37.4375 C18.2309375 38.2109375 18.2309375 38.2109375 17 39 C17 39.99 17 40.98 17 42 C16.01 42.495 16.01 42.495 15 43 C15 42.34 15 41.68 15 41 C14.34 41 13.68 41 13 41 C12.67 42.32 12.34 43.64 12 45 C12 44.34 12 43.68 12 43 C11.34 43 10.68 43 10 43 C10 43.66 10 44.32 10 45 C6.37 45 2.74 45 -1 45 C-1 45.66 -1 46.32 -1 47 C1.64 47 4.28 47 7 47 C7 47.33 7 47.66 7 48 C5.02 48 3.04 48 1 48 C1 48.66 1 49.32 1 50 C3.64 50 6.28 50 9 50 C8.67 50.99 8.34 51.98 8 53 C6.52031676 52.85950482 5.04125484 52.71245174 3.5625 52.5625 C2.73878906 52.48128906 1.91507813 52.40007813 1.06640625 52.31640625 C-1 52 -1 52 -2 51 C-2.04080783 49.00041636 -2.04254356 46.99954746 -2 45 C-2.66 45 -3.32 45 -4 45 C-4 43.35 -4 41.7 -4 40 C-4.99 40 -5.98 40 -7 40 C-9.65754784 38.16015919 -9.9937139 37.02914465 -10.6875 33.8125 C-10.790625 32.884375 -10.89375 31.95625 -11 31 C-4.71428571 28.57142857 -4.71428571 28.57142857 -1 30 C-1 30.66 -1 31.32 -1 32 C-0.01 32 0.98 32 2 32 C1.67 30.02 1.34 28.04 1 26 C-2.63 25.67 -6.26 25.34 -10 25 C-10 23.68 -10 22.36 -10 21 C-13.04913228 19.98888907 -13.04913228 19.98888907 -16 21 C-16.33 21.99 -16.66 22.98 -17 24 C-17.66 24 -18.32 24 -19 24 C-19.3125 21.25 -19.3125 21.25 -19 18 C-16.5 15.6875 -16.5 15.6875 -14 14 C-14 13.67 -14 13.34 -14 13 C-13.44175622 10.60752667 -12.77848594 8.33545783 -12 6 C-9.36 6.33 -6.72 6.66 -4 7 C-5.64079242 5.35920758 -7.77768765 5.39887658 -10 5 C-10 3 -10 3 -8 1 C-4.96344891 -0.92314902 -3.35124551 -1.42174052 0 0 Z " fill="#88D614" transform="translate(33,9)"/>
<path d="M0 0 C10.23 0 20.46 0 31 0 C27 2 27 2 23.75 3.25 C13.89173078 7.58007134 8.81053345 14.45949227 4 24 C0.52476651 33.03273499 0.82835283 44.90907548 4 54 C5.44402593 55.63689078 5.44402593 55.63689078 7 57 C7.45375 57.78375 7.9075 58.5675 8.375 59.375 C10.25964978 62.41943426 12.37929163 64.56213175 15 67 C15.928125 67.86625 16.85625 68.7325 17.8125 69.625 C21.49678634 72.37015452 24.65536748 73.57675831 29 75 C29 75.33 29 75.66 29 76 C19.43 76 9.86 76 0 76 C0 50.92 0 25.84 0 0 Z " fill="#FCFCFC" transform="translate(0,0)"/>
<path d="M0 0 C1.65 0 3.3 0 5 0 C3.22054913 4.04420651 0.60470327 7.46078487 -2 11 C-0.35 9.68 1.3 8.36 3 7 C4.125 10.75 4.125 10.75 3 13 C3.66 13 4.32 13 5 13 C5.33 11.68 5.66 10.36 6 9 C8.3125 8.3125 8.3125 8.3125 11 8 C12.8125 9.4375 12.8125 9.4375 14 11 C13.67 11.66 13.34 12.32 13 13 C16.3 13.66 19.6 14.32 23 15 C23.33 16.98 23.66 18.96 24 21 C23.01 21 22.02 21 21 21 C21 20.34 21 19.68 21 19 C18.03 19.33 15.06 19.66 12 20 C12 21.98 12 23.96 12 26 C10.078125 25.2890625 10.078125 25.2890625 8 24 C7.171875 21.8359375 7.171875 21.8359375 6.75 19.375 C6.60046875 18.55773437 6.4509375 17.74046875 6.296875 16.8984375 C6.14992188 15.95871094 6.14992188 15.95871094 6 15 C5.67 15.66 5.34 16.32 5 17 C5.33 17.66 5.66 18.32 6 19 C6.1546875 20.175625 6.1546875 20.175625 6.3125 21.375 C7.15018551 24.57343559 8.54177921 25.85896899 11 28 C10.67 28.66 10.34 29.32 10 30 C8.35 28.68 6.7 27.36 5 26 C5 27.65 5 29.3 5 31 C5.66 30.01 6.32 29.02 7 28 C7 32.29 7 36.58 7 41 C2.34269056 39.83567264 1.66343463 38.81758963 -1 35 C-1.70885894 33.68861096 -2.39456452 32.36222983 -3 31 C-3.66 31.33 -4.32 31.66 -5 32 C-7.06722498 24.11870478 -8.3244782 15.97760917 -6 8 C-5.34 8 -4.68 8 -4 8 C-2.68 5.36 -1.36 2.72 0 0 Z " fill="#6E7861" transform="translate(11,20)"/>
<path d="M0 0 C1.7074998 1.28062485 3.38263741 2.6072711 5 4 C5.7425 3.175 6.485 2.35 7.25 1.5 C10 -1 10 -1 14 -1 C14 -0.34 14 0.32 14 1 C14.99 1.33 15.98 1.66 17 2 C14.69 2.99 12.38 3.98 10 5 C13.13498292 3.14223235 15.37471432 2.79859524 19 3 C19 3.66 19 4.32 19 5 C17.3603125 5.37125 17.3603125 5.37125 15.6875 5.75 C12.08292738 6.72153734 12.08292738 6.72153734 10 8.6875 C8.5762161 11.98000028 9.43935159 14.511521 10 18 C9.5 20.375 9.5 20.375 8 22 C1.2883532 23.99921394 -5.60309243 22.26070624 -12.20703125 20.3671875 C-14.09227312 19.78881631 -14.09227312 19.78881631 -16 21 C-16.33 21.99 -16.66 22.98 -17 24 C-17.66 24 -18.32 24 -19 24 C-19.3125 21.25 -19.3125 21.25 -19 18 C-16.5 15.6875 -16.5 15.6875 -14 14 C-14 13.67 -14 13.34 -14 13 C-13.44175622 10.60752667 -12.77848594 8.33545783 -12 6 C-9.36 6.33 -6.72 6.66 -4 7 C-5.64079242 5.35920758 -7.77768765 5.39887658 -10 5 C-10 3 -10 3 -8 1 C-4.96344891 -0.92314902 -3.35124551 -1.42174052 0 0 Z " fill="#697D4F" transform="translate(33,9)"/>
<path d="M0 0 C0 0.99 0 1.98 0 3 C2.31 3 4.62 3 7 3 C7 2.01 7 1.02 7 0 C14.43334842 0.47446905 20.90339294 3.48405185 26 9 C25.67 9.66 25.34 10.32 25 11 C24.01 10.34 23.02 9.68 22 9 C22.495 9.94875 22.99 10.8975 23.5 11.875 C25 15 25 15 25 17 C25.66 17.825 26.32 18.65 27 19.5 C29 22 29 22 29 24 C27.35 23.67 25.7 23.34 24 23 C24.495 24.98 24.495 24.98 25 27 C24.34 27 23.68 27 23 27 C22.01 27.495 22.01 27.495 21 28 C21 30.64 21 33.28 21 36 C20.01 36.495 20.01 36.495 19 37 C18.67 36.01 18.34 35.02 18 34 C17.01 33.505 17.01 33.505 16 33 C15.67 33.99 15.34 34.98 15 36 C14.01 35.505 14.01 35.505 13 35 C13.33 34.67 13.66 34.34 14 34 C13.01 33.67 12.02 33.34 11 33 C10.34 34.32 9.68 35.64 9 37 C8.67 36.34 8.34 35.68 8 35 C7.34 35 6.68 35 6 35 C5.67 35.66 5.34 36.32 5 37 C5.60655738 31.54098361 5.60655738 31.54098361 7.25 29.28125 C9 28 9 28 11.26171875 27.92578125 C12.06222656 28.05339844 12.86273438 28.18101563 13.6875 28.3125 C14.49574219 28.43238281 15.30398437 28.55226563 16.13671875 28.67578125 C16.75160156 28.78277344 17.36648437 28.88976562 18 29 C16.7315625 27.6696875 16.7315625 27.6696875 15.4375 26.3125 C13 23.37783286 13 23.37783286 13 20.375 C14.04309933 17.8976391 15.26060716 16.04189594 17 14 C17.99 14.33 18.98 14.66 20 15 C19.67 15.66 19.34 16.32 19 17 C19.66 16.67 20.32 16.34 21 16 C21.33 15.01 21.66 14.02 22 13 C18.7 13 15.4 13 12 13 C12.33 12.34 12.66 11.68 13 11 C15.31 11 17.62 11 20 11 C20 10.34 20 9.68 20 9 C13.46362008 10.34180694 13.46362008 10.34180694 8 14 C9.36983503 10.83884224 9.9890638 10.0072908 13 8 C15.6875 7.875 15.6875 7.875 18 8 C18 7.34 18 6.68 18 6 C14.20696275 7.00193437 11.28463659 7.81024227 8 10 C9.36983503 6.83884224 9.9890638 6.0072908 13 4 C13 3.34 13 2.68 13 2 C9.00499382 3.3697164 6.19990508 5.25722422 3 8 C1.02 6.35 -0.96 4.7 -3 3 C-3.86625 3.7425 -3.86625 3.7425 -4.75 4.5 C-7 6 -7 6 -11 6 C-11 6.66 -11 7.32 -11 8 C-9.88625 8.0825 -8.7725 8.165 -7.625 8.25 C-4 9 -4 9 -2.5625 11.0625 C-2.376875 11.701875 -2.19125 12.34125 -2 13 C-3.0725 12.525625 -4.145 12.05125 -5.25 11.5625 C-7.80839865 10.46233668 -10.25835017 9.54832997 -13 9 C-13 9.66 -13 10.32 -13 11 C-12.01 11.33 -11.02 11.66 -10 12 C-11.32 12.33 -12.64 12.66 -14 13 C-13.49396008 15.16874252 -13.00016187 16.99967627 -12 19 C-12.99 18.67 -13.98 18.34 -15 18 C-15.66 18.99 -16.32 19.98 -17 21 C-17.99 21 -18.98 21 -20 21 C-19.731875 20.505 -19.46375 20.01 -19.1875 19.5 C-17.56124507 16.0763054 -16.30484829 12.55867715 -15 9 C-17.475 10.485 -17.475 10.485 -20 12 C-18.22014634 7.19439512 -14.46142047 4.19284223 -9.96875 2.015625 C-6.33334617 0.5777414 -4.00432754 0 0 0 Z " fill="#304420" transform="translate(34,6)"/>
<path d="M0 0 C7.24402055 3.09119842 11.00151637 11.06504556 14 18 C15.41002711 22.23008134 15.22440253 26.25593733 15.25 30.6875 C15.270625 31.56083984 15.29125 32.43417969 15.3125 33.33398438 C15.34789183 39.25769111 14.3985727 43.5779633 12 49 C11.34 49 10.68 49 10 49 C9.7525 49.721875 9.505 50.44375 9.25 51.1875 C6.08858025 58.30069444 -0.02103848 63.1763093 -7 66.375 C-7.99 66.684375 -7.99 66.684375 -9 67 C-9.33 66.01 -9.66 65.02 -10 64 C-9.41992188 63.72027344 -8.83984375 63.44054687 -8.2421875 63.15234375 C-2.56796704 60.24032632 1.22466839 57.13741203 5 52 C3.35 53.32 1.7 54.64 0 56 C1.5277867 52.56247993 3.50181056 49.81046312 6 47 C6.66 47 7.32 47 8 47 C10.94724405 36.50781119 12.13796077 24.34336794 7.359375 14.21484375 C5.30077617 10.86074739 2.8906547 7.86134173 0.29296875 4.91015625 C-0.13371094 4.27980469 -0.56039062 3.64945313 -1 3 C-0.67 2.01 -0.34 1.02 0 0 Z " fill="#5F6B51" transform="translate(58,8)"/>
<path d="M0 0 C9.57 0 19.14 0 29 0 C29 9.57 29 19.14 29 29 C27.18902091 26.28353137 25.70130206 23.5753071 24.1875 20.6875 C19.58301995 12.27546914 14.09615271 5.72429994 4.86328125 2.1796875 C3.26034363 1.71798944 1.63158334 1.34714539 0 1 C0 0.67 0 0.34 0 0 Z " fill="#FAFAFB" transform="translate(44,0)"/>
<path d="M0 0 C0.33 0 0.66 0 1 0 C1 8.91 1 17.82 1 27 C-7.58 27 -16.16 27 -25 27 C-22.73020646 25.48680431 -20.45116076 24.04603984 -18.125 22.625 C-12.25033039 18.91976963 -8.52588775 15.70093318 -5.11328125 9.609375 C-4.56220703 8.81273437 -4.56220703 8.81273437 -4 8 C-3.34 8 -2.68 8 -2 8 C-1.34 5.36 -0.68 2.72 0 0 Z " fill="#FCFCFD" transform="translate(72,49)"/>
<path d="M0 0 C1.04688297 1.57032446 2.0845843 3.15080922 3.0078125 4.796875 C7.51965244 12.68470707 13.98289519 18.76868378 22.78125 21.56640625 C25.63704084 22.12449214 28.34240641 22.09410428 31.25 22.0625 C32.32765625 22.05347656 33.4053125 22.04445313 34.515625 22.03515625 C35.74539062 22.01775391 35.74539062 22.01775391 37 22 C35.68 21.67 34.36 21.34 33 21 C33.3125 19.0625 33.3125 19.0625 34 17 C34.99 16.67 35.98 16.34 37 16 C37.33 15.01 37.66 14.02 38 13 C38.99 12.67 39.98 12.34 41 12 C41.309375 11.175 41.61875 10.35 41.9375 9.5 C42.288125 8.675 42.63875 7.85 43 7 C44.32 6.67 45.64 6.34 47 6 C47 9.63 47 13.26 47 17 C48.32 16.67 49.64 16.34 51 16 C46.61421999 21.09316389 41.50630514 24.37067118 34.734375 25.31640625 C22.97140759 25.62487568 14.58064681 21.51154771 6.125 13.5 C2.16730031 9.34028316 0 5.8567375 0 0 Z " fill="#95959D" transform="translate(7,48)"/>
<path d="M0 0 C4.29566673 0.29123164 7.2148067 0.59939117 11.0625 2.5625 C13 5 13 5 13.04296875 6.9375 C12.75 9.0625 12.75 9.0625 12.296875 11.09765625 C11.81725823 13.21631575 11.81725823 13.21631575 13 16 C6.61829653 16.25026288 6.61829653 16.25026288 3.375 14.9375 C0.49809981 13.8018815 -1.07328007 14.16379431 -4 15 C-4.33 15.99 -4.66 16.98 -5 18 C-5.66 18 -6.32 18 -7 18 C-7.3125 15.25 -7.3125 15.25 -7 12 C-4.5 9.6875 -4.5 9.6875 -2 8 C-2 7.67 -2 7.34 -2 7 C-1.44175622 4.60752667 -0.77848594 2.33545783 0 0 Z " fill="#667B51" transform="translate(21,15)"/>
<path d="M0 0 C6.33955133 1.23698563 9.37196734 4.98063443 13 10 C18.69694065 19.50634073 19.83409722 31.09845324 17.328125 41.89453125 C16.5 44.0625 16.5 44.0625 15 47 C13.79649997 43.38949992 14.32027888 41.73846617 15 38 C15.25006686 36.27373198 15.47798458 34.54415759 15.6875 32.8125 C15.79449219 31.97332031 15.90148437 31.13414063 16.01171875 30.26953125 C16.20671819 27.71381435 16.20671819 27.71381435 14 25 C13.4225 25.2475 12.845 25.495 12.25 25.75 C11.13625 25.87375 11.13625 25.87375 10 26 C7.75 24.0625 7.75 24.0625 6 22 C6.33 21.34 6.66 20.68 7 20 C9.475 20.99 9.475 20.99 12 22 C11.566875 21.37351562 11.13375 20.74703125 10.6875 20.1015625 C10.130625 19.28429687 9.57375 18.46703125 9 17.625 C8.443125 16.81289063 7.88625 16.00078125 7.3125 15.1640625 C6 13 6 13 6 11 C5.68521554 9.66216607 5.35412344 8.32796291 5 7 C5.99 7 6.98 7 8 7 C7.236875 6.401875 6.47375 5.80375 5.6875 5.1875 C3.6516425 3.53040668 1.8021721 1.89702326 0 0 Z " fill="#7A886C" transform="translate(51,8)"/>
<path d="M0 0 C0.33 0 0.66 0 1 0 C1.06316406 0.67546875 1.12632813 1.3509375 1.19140625 2.046875 C1.80116507 7.28421105 1.80116507 7.28421105 4.55078125 11.58984375 C7.2179436 13.19471017 9.31276071 14.07048608 12.4375 13.75 C12.953125 13.5025 13.46875 13.255 14 13 C13.34 15.31 12.68 17.62 12 20 C12.66 20 13.32 20 14 20 C14.08912219 23.83225427 13.87867729 27.26562152 13 31 C11.0625 29.875 11.0625 29.875 9 28 C8.25 24.8125 8.25 24.8125 8 22 C7.34 22 6.68 22 6 22 C5.67 21.01 5.34 20.02 5 19 C2.87953208 22.53411321 2.46800711 25.94393835 2 30 C1.01 29.01 0.02 28.02 -1 27 C-0.34 27 0.32 27 1 27 C0.88637738 25.5199159 0.75877092 24.04089926 0.625 22.5625 C0.55539063 21.73878906 0.48578125 20.91507813 0.4140625 20.06640625 C0.27742188 19.38449219 0.14078125 18.70257813 0 18 C-0.66 17.67 -1.32 17.34 -2 17 C-2 15.02 -2 13.04 -2 11 C-1.360625 11.33 -0.72125 11.66 -0.0625 12 C1.76794567 13.07271225 1.76794567 13.07271225 3 13 C2.34 12.443125 1.68 11.88625 1 11.3125 C-1 9 -1 9 -1.25 6.25 C-1.12625 5.13625 -1.12625 5.13625 -1 4 C-1.99 4.495 -1.99 4.495 -3 5 C-1.125 1.125 -1.125 1.125 0 0 Z " fill="#365419" transform="translate(17,34)"/>
<path d="M0 0 C1.32 0.33 2.64 0.66 4 1 C4 2.32 4 3.64 4 5 C4.99 4.34 5.98 3.68 7 3 C6.67 4.32 6.34 5.64 6 7 C5.01 7 4.02 7 3 7 C3.33 7.66 3.66 8.32 4 9 C5.24546405 11.49092811 4.7767578 12.41080733 4 15 C4.33 15 4.66 15 5 15 C5 17.31 5 19.62 5 22 C4.34 22.33 3.68 22.66 3 23 C2.67 22.01 2.34 21.02 2 20 C1.34 19.67 0.68 19.34 0 19 C-0.33 19.99 -0.66 20.98 -1 22 C-1.66 21.67 -2.32 21.34 -3 21 C-2.67 20.67 -2.34 20.34 -2 20 C-2.99 19.67 -3.98 19.34 -5 19 C-5.66 20.32 -6.32 21.64 -7 23 C-7.33 22.34 -7.66 21.68 -8 21 C-8.66 21 -9.32 21 -10 21 C-10.33 21.66 -10.66 22.32 -11 23 C-10.39344262 17.54098361 -10.39344262 17.54098361 -8.75 15.28125 C-7 14 -7 14 -4.73828125 13.92578125 C-3.93777344 14.05339844 -3.13726562 14.18101563 -2.3125 14.3125 C-1.50425781 14.43238281 -0.69601563 14.55226563 0.13671875 14.67578125 C0.75160156 14.78277344 1.36648437 14.88976563 2 15 C1.154375 14.113125 0.30875 13.22625 -0.5625 12.3125 C-3.00893791 9.37539234 -3.00893791 9.37539234 -2.9375 6.375 C-2.06703464 4.1698211 -1.15138697 2.07249655 0 0 Z " fill="#2B4425" transform="translate(50,20)"/>
<path d="M0 0 C0.33 0 0.66 0 1 0 C1 1.65 1 3.3 1 5 C1.66 5 2.32 5 3 5 C3.33 6.98 3.66 8.96 4 11 C4.99 11.33 5.98 11.66 7 12 C7 11.01 7 10.02 7 9 C12.94 9.99 12.94 9.99 19 11 C18.67 11.66 18.34 12.32 18 13 C13.25 13.125 13.25 13.125 11 12 C11.66 13.32 12.32 14.64 13 16 C10.875 17.625 10.875 17.625 8 19 C5 18.375 5 18.375 2 17 C1.05125 16.62875 0.1025 16.2575 -0.875 15.875 C-3 14 -3 14 -3.5 10.1875 C-3.26832363 6.27072131 -2.02534008 3.3755668 0 0 Z " fill="#616E56" transform="translate(22,51)"/>
<path d="M0 0 C2.6875 2.75 2.6875 2.75 4 5 C0.57529751 5 -0.47225542 4.2646077 -3.375 2.5625 C-10.30883256 -0.97002023 -17.34052354 -1.98542452 -24.9921875 -0.3671875 C-34.37375325 2.72535079 -40.71557564 7.74308694 -46 16 C-46.96250328 12.95640855 -47.13660153 12.30052337 -45.75 9.25 C-41.32551951 3.22779045 -33.69076709 -2.56668118 -26.21484375 -3.8203125 C-16.82586849 -4.58202831 -8.48861131 -4.59677395 0 0 Z " fill="#929D5A" transform="translate(55,4)"/>
<path d="M0 0 C-3.93670488 1.31223496 -6.12488144 0.24296256 -10 -1 C-10 -0.01 -10 0.98 -10 2 C-12.31 2 -14.62 2 -17 2 C-17 1.01 -17 0.02 -17 -1 C-24.72142661 1.15540644 -30.29119191 3.29119191 -36 9 C-34.68 8.67 -33.36 8.34 -32 8 C-31.84885235 14.95279171 -35.40585007 18.17991482 -40.06640625 23.05859375 C-40.70449219 23.69925781 -41.34257813 24.33992188 -42 25 C-42 21.19654123 -40.86213669 20.22298985 -38.5 17.3125 C-37.8503125 16.50425781 -37.200625 15.69601563 -36.53125 14.86328125 C-35.77328125 13.94095703 -35.77328125 13.94095703 -35 13 C-36.65 13 -38.3 13 -40 13 C-40.99 15.97 -41.98 18.94 -43 22 C-44 18 -44 18 -43.06640625 15.66796875 C-37.6211136 6.68677179 -31.95676157 0.91190426 -21.796875 -2.34375 C-13.9235417 -4.19112429 -7.40718085 -3.00581252 0 0 Z " fill="#ACB0AC" transform="translate(51,7)"/>
<path d="M0 0 C0 0.66 0 1.32 0 2 C-1.65 2.33 -3.3 2.66 -5 3 C-2.69 3.33 -0.38 3.66 2 4 C1.67 5.32 1.34 6.64 1 8 C0.34 8 -0.32 8 -1 8 C-1.33 7.34 -1.66 6.68 -2 6 C-4.16641665 7.66545339 -4.16641665 7.66545339 -6 10 C-5.82813436 13.52324572 -4.98272184 15.02591724 -3 18 C-7.95 18 -12.9 18 -18 18 C-15 16 -15 16 -13 15 C-11.88578167 11.35346727 -12.05703411 8.66708957 -13 5 C-8.68660704 1.42677506 -5.86197356 -0.71487482 0 0 Z " fill="#809A5A" transform="translate(54,15)"/>
<path d="M0 0 C0 3 0 3 -1.3203125 4.71875 C-9.71052632 13 -9.71052632 13 -15 13 C-14.67 13.99 -14.34 14.98 -14 16 C-19.88577565 18.94288782 -30.93686596 17.85857735 -37.19140625 16.10546875 C-39.625 15 -39.625 15 -43 13 C-42.01 12.67 -41.02 12.34 -40 12 C-40.33 11.34 -40.66 10.68 -41 10 C-40.154375 10.309375 -39.30875 10.61875 -38.4375 10.9375 C-34.89646091 12.03200299 -31.68715891 12.62503469 -28 13 C-26.99839844 13.13341797 -26.99839844 13.13341797 -25.9765625 13.26953125 C-17.91444496 13.89529128 -10.7486066 10.16170355 -4.6796875 5.04296875 C-3.04074642 3.41398076 -1.48597168 1.76851559 0 0 Z " fill="#3B4D23" transform="translate(63,59)"/>
<path d="M0 0 C0.66 0 1.32 0 2 0 C1.85892253 1.45880109 1.71197585 2.91703551 1.5625 4.375 C1.48128906 5.18710937 1.40007813 5.99921875 1.31640625 6.8359375 C1 9 1 9 0 11 C-0.845625 11.474375 -1.69125 11.94875 -2.5625 12.4375 C-3.7690625 13.2109375 -3.7690625 13.2109375 -5 14 C-5 14.99 -5 15.98 -5 17 C-5.66 17.33 -6.32 17.66 -7 18 C-7 17.34 -7 16.68 -7 16 C-7.99 16.33 -8.98 16.66 -10 17 C-15 11.5 -15 11.5 -15 7 C-14.01 7 -13.02 7 -12 7 C-10.31201173 5.56249809 -10.31201173 5.56249809 -9 4 C-8.01 4.66 -7.02 5.32 -6 6 C-5.01 5.67 -4.02 5.34 -3 5 C-2.01 6.485 -2.01 6.485 -1 8 C-0.67 5.36 -0.34 2.72 0 0 Z " fill="#779F49" transform="translate(55,34)"/>
<path d="M0 0 C1.45880109 0.14107747 2.91703551 0.28802415 4.375 0.4375 C5.59316406 0.55931641 5.59316406 0.55931641 6.8359375 0.68359375 C9 1 9 1 11 2 C14.02259286 2.07049779 17.0320618 1.99691279 20.0546875 1.9375 C22.59000286 1.9912998 24.59403346 2.25612629 27 3 C27 3.66 27 4.32 27 5 C23.37 5 19.74 5 16 5 C15.34 9.62 14.68 14.24 14 19 C13.01 19 12.02 19 11 19 C11 14.71 11 10.42 11 6 C6.71 5.34 2.42 4.68 -2 4 C-1.34 2.68 -0.68 1.36 0 0 Z " fill="#A5C463" transform="translate(25,30)"/>
<path d="M0 0 C1.1446875 0.495 1.1446875 0.495 2.3125 1 C4.99069135 2.17436686 4.99069135 2.17436686 8 2 C8.66 1.34 9.32 0.68 10 0 C10.87890625 6.15234375 10.87890625 6.15234375 11 8 C10.67 8.33 10.34 8.66 10 9 C9.71520878 11.77558423 9.55156981 14.55127845 9.37890625 17.3359375 C9 20 9 20 7 23 C6.34 23 5.68 23 5 23 C4.67 22.01 4.34 21.02 4 20 C3.34 20.33 2.68 20.66 2 21 C2 19.35 2 17.7 2 16 C3.32 16 4.64 16 6 16 C6 15.34 6 14.68 6 14 C5.34 14 4.68 14 4 14 C3.96261719 13.38511719 3.92523438 12.77023438 3.88671875 12.13671875 C3.82097656 11.32847656 3.75523438 10.52023438 3.6875 9.6875 C3.62949219 8.88699219 3.57148437 8.08648437 3.51171875 7.26171875 C2.9123443 4.61257517 1.96373189 3.79526159 0 2 C0 1.34 0 0.68 0 0 Z " fill="#627448" transform="translate(56,31)"/>
<path d="M0 0 C6.65837871 2.84129092 10.027905 9.65718391 13.23828125 15.84765625 C15.20532899 21.40582705 15.07833996 26.93990147 14.6875 32.75 C14.56955078 34.69132812 14.56955078 34.69132812 14.44921875 36.671875 C14 40 14 40 12 43 C12.01160156 41.69804688 12.02320312 40.39609375 12.03515625 39.0546875 C12.04453973 37.32812644 12.05363934 35.60156382 12.0625 33.875 C12.07087891 33.0190625 12.07925781 32.163125 12.08789062 31.28125 C12.10538306 26.73321589 11.93192358 22.47616836 11 18 C10.34 18 9.68 18 9 18 C8.69707031 17.43152344 8.39414063 16.86304687 8.08203125 16.27734375 C5.35066454 11.2432248 2.42063456 6.59342355 -1 2 C-0.67 1.34 -0.34 0.68 0 0 Z " fill="#7FA22F" transform="translate(58,8)"/>
<path d="M0 0 C1 2 1 2 1.3125 4.375 C2.15018551 7.57343559 3.54177921 8.85896899 6 11 C5.67 11.66 5.34 12.32 5 13 C3.35 11.68 1.7 10.36 0 9 C0 10.65 0 12.3 0 14 C0.66 13.01 1.32 12.02 2 11 C2 15.29 2 19.58 2 24 C1.34 24 0.68 24 0 24 C-0.33 22.68 -0.66 21.36 -1 20 C-1.66 20 -2.32 20 -3 20 C-3 19.34 -3 18.68 -3 18 C-2.34 18 -1.68 18 -1 18 C-1.33 17.67 -1.66 17.34 -2 17 C-2.66 17 -3.32 17 -4 17 C-6.20914 13.68629 -6.22481553 12.6553979 -6.125 8.8125 C-6.10695313 7.91144531 -6.08890625 7.01039062 -6.0703125 6.08203125 C-6.04710937 5.39496094 -6.02390625 4.70789062 -6 4 C-5.34 4 -4.68 4 -4 4 C-4 4.99 -4 5.98 -4 7 C-3.34 7 -2.68 7 -2 7 C-2.061875 5.824375 -2.061875 5.824375 -2.125 4.625 C-2 2 -2 2 0 0 Z " fill="#688641" transform="translate(16,37)"/>
<path d="M0 0 C1.093125 0.53625 2.18625 1.0725 3.3125 1.625 C5.1378125 2.305625 5.1378125 2.305625 7 3 C7.99 2.34 8.98 1.68 10 1 C10.2236337 2.41433206 10.42826476 3.83167618 10.625 5.25 C10.74101563 6.03890625 10.85703125 6.8278125 10.9765625 7.640625 C11.00392226 10.3948409 10.59832946 11.76233876 9 14 C5.375 14.75 5.375 14.75 2 15 C-0.01023791 12.16201706 -0.05105942 10.25359708 0.4375 6.9375 C1.28416697 3.10714492 1.28416697 3.10714492 0 0 Z " fill="#9394A1" transform="translate(32,17)"/>
<path d="M0 0 C0 0.66 0 1.32 0 2 C0.66 2 1.32 2 2 2 C2.3125 4.75 2.3125 4.75 2 8 C-0.5 10.375 -0.5 10.375 -3 12 C-2.67 11.01 -2.34 10.02 -2 9 C-2.8971875 9.3403125 -2.8971875 9.3403125 -3.8125 9.6875 C-6 10 -6 10 -7.6875 8.9375 C-9.42645383 6.37047292 -9.66129946 4.04830482 -10 1 C-3.71428571 -1.42857143 -3.71428571 -1.42857143 0 0 Z " fill="#89AC60" transform="translate(32,39)"/>
<path d="M0 0 C2 0.6875 2 0.6875 4 2.6875 C3.67 3.3475 3.34 4.0075 3 4.6875 C6.3 5.3475 9.6 6.0075 13 6.6875 C13.33 8.6675 13.66 10.6475 14 12.6875 C13.01 12.6875 12.02 12.6875 11 12.6875 C11 12.0275 11 11.3675 11 10.6875 C7.7 11.0175 4.4 11.3475 1 11.6875 C1 9.3775 1 7.0675 1 4.6875 C-2.04913228 3.67638907 -2.04913228 3.67638907 -5 4.6875 C-4.625 2.75 -4.625 2.75 -4 0.6875 C-2 -0.3125 -2 -0.3125 0 0 Z " fill="#395A25" transform="translate(21,28.3125)"/>
<path d="M0 0 C0.33 0.99 0.66 1.98 1 3 C-1 6 -1 6 -4 7 C-6.64296752 9.33203016 -7.87224426 10.61673278 -9 14 C-7.35 14 -5.7 14 -4 14 C-4.33 14.66 -4.66 15.32 -5 16 C-6.95803507 16.05389087 -8.91648909 16.09274217 -10.875 16.125 C-12.51082031 16.15980469 -12.51082031 16.15980469 -14.1796875 16.1953125 C-17 16 -17 16 -19 14 C-17.68 13.34 -16.36 12.68 -15 12 C-15.34786708 10.02463255 -15.34786708 10.02463255 -16 8 C-16.66 7.67 -17.32 7.34 -18 7 C-17.38511719 7.08378906 -16.77023438 7.16757812 -16.13671875 7.25390625 C-14.92435547 7.40666016 -14.92435547 7.40666016 -13.6875 7.5625 C-12.88699219 7.66691406 -12.08648437 7.77132812 -11.26171875 7.87890625 C-8.83182884 8.14755178 -8.83182884 8.14755178 -6 7 C-5.690625 6.38125 -5.38125 5.7625 -5.0625 5.125 C-3.79701313 2.59402625 -2.32727163 1.55151442 0 0 Z " fill="#0F1119" transform="translate(49,55)"/>
<path d="M0 0 C1.32 0 2.64 0 4 0 C4.33 0.99 4.66 1.98 5 3 C2.68010389 6.35096105 -0.07157569 9.17616228 -3 12 C-3.66 11.67 -4.32 11.34 -5 11 C-4.67 10.34 -4.34 9.68 -4 9 C-6.64 9 -9.28 9 -12 9 C-12 8.34 -12 7.68 -12 7 C-12.66 6.67 -13.32 6.34 -14 6 C-14 5.34 -14 4.68 -14 4 C-10.37 4 -6.74 4 -3 4 C-3 3.34 -3 2.68 -3 2 C-2.34 2 -1.68 2 -1 2 C-0.67 1.34 -0.34 0.68 0 0 Z " fill="#6DA919" transform="translate(46,50)"/>
<path d="M0 0 C1.315213 2.14587384 2 3.47013105 2 6 C2.66 6.825 3.32 7.65 4 8.5 C6 11 6 11 6 13 C4.35 12.67 2.7 12.34 1 12 C1.33 13.32 1.66 14.64 2 16 C1.34 16 0.68 16 0 16 C-1.36161311 16.96113866 -2.69855198 17.95884159 -4 19 C-3.67 17.02 -3.34 15.04 -3 13 C-3.66 12.67 -4.32 12.34 -5 12 C-4.67 11.34 -4.34 10.68 -4 10 C-3.01 10 -2.02 10 -1 10 C-1 9.01 -1 8.02 -1 7 C-1.99 7.66 -2.98 8.32 -4 9 C-3.690625 8.401875 -3.38125 7.80375 -3.0625 7.1875 C-1.89790296 4.91043228 -1.89790296 4.91043228 -1 2 C-4.3 2 -7.6 2 -11 2 C-10.67 1.34 -10.34 0.68 -10 0 C-6.18015204 -0.77811718 -3.73159669 -1.24386556 0 0 Z " fill="#2F3A29" transform="translate(57,17)"/>
<path d="M0 0 C2 3 2 3 2 5 C1.34 5 0.68 5 0 5 C-0.2475 5.721875 -0.495 6.44375 -0.75 7.1875 C-3.91141975 14.30069444 -10.02103848 19.1763093 -17 22.375 C-17.66 22.58125 -18.32 22.7875 -19 23 C-19.33 22.01 -19.66 21.02 -20 20 C-19.443125 19.74347656 -18.88625 19.48695312 -18.3125 19.22265625 C-9.93730758 15.02091275 -3.584585 8.73742595 0 0 Z " fill="#869748" transform="translate(68,52)"/>
<path d="M0 0 C1.75 1.0625 1.75 1.0625 3 3 C3.25250174 5.71842295 3.13481379 8.25878635 3 11 C2.48050781 10.65066406 1.96101563 10.30132812 1.42578125 9.94140625 C-3.87724314 6.45944496 -3.87724314 6.45944496 -10 5 C-10 3 -10 3 -8 1 C-4.98836305 -0.90737007 -3.33747637 -1.39958687 0 0 Z " fill="#849C5D" transform="translate(33,9)"/>
<path d="M0 0 C8.34285048 -0.52415815 15.51381611 0.00821881 23 4 C25.6875 6.75 25.6875 6.75 27 9 C23.59923957 9 22.52290419 8.29057284 19.625 6.625 C14.37374514 3.87138778 9.44593371 3.07885644 3.58984375 2.45703125 C2.73519531 2.30621094 1.88054688 2.15539062 1 2 C0.67 1.34 0.34 0.68 0 0 Z " fill="#77943A" transform="translate(32,0)"/>
<path d="M0 0 C1.2380014 3.57644848 0.74926071 6.33694766 0 10 C-0.66 10 -1.32 10 -2 10 C-3.09681649 13.8977776 -3.34038757 17.73236648 -3.62109375 21.7578125 C-4 24 -4 24 -6 26 C-6.32955582 16.20486873 -6.12949696 7.96834605 0 0 Z " fill="#738B4A" transform="translate(7,18)"/>
<path d="M0 0 C0.598125 0.350625 1.19625 0.70125 1.8125 1.0625 C4.10813214 2.33304698 4.10813214 2.33304698 7 1 C7.33 1.99 7.66 2.98 8 4 C7.01 4.33 6.02 4.66 5 5 C4.67 5.66 4.34 6.32 4 7 C2.68 7 1.36 7 0 7 C0.33 7.66 0.66 8.32 1 9 C0.01 9.33 -0.98 9.66 -2 10 C-3.5 8.75 -3.5 8.75 -5 7 C-5 5.68 -5 4.36 -5 3 C-4.01 3 -3.02 3 -2 3 C-1.34 2.01 -0.68 1.02 0 0 Z " fill="#97B07B" transform="translate(45,38)"/>
<path d="M0 0 C0.86625 0.5259375 0.86625 0.5259375 1.75 1.0625 C4.35801776 2.14917407 5.39417629 1.93065133 8 1 C7.34 3.31 6.68 5.62 6 8 C6.66 8 7.32 8 8 8 C8 9.65 8 11.3 8 13 C3.49369074 10.80774144 1.80727533 8.66086797 0 4 C0 2.68 0 1.36 0 0 Z " fill="#558427" transform="translate(23,46)"/>
<path d="M0 0 C1.32 0.33 2.64 0.66 4 1 C4 2.32 4 3.64 4 5 C4.99 4.34 5.98 3.68 7 3 C6.67 4.32 6.34 5.64 6 7 C5.01 7 4.02 7 3 7 C2.67 7.99 2.34 8.98 2 10 C1.01 10.33 0.02 10.66 -1 11 C-1.66 10.34 -2.32 9.68 -3 9 C-2.6442194 5.62008426 -1.64284201 2.95711562 0 0 Z " fill="#495B37" transform="translate(50,20)"/>
<path d="M0 0 C0.33 0 0.66 0 1 0 C1.02696365 1.79158489 1.04637917 3.58328473 1.0625 5.375 C1.07410156 6.37273438 1.08570312 7.37046875 1.09765625 8.3984375 C1 11 1 11 0 13 C-0.23576957 14.39473322 -0.46392545 15.79076005 -0.6875 17.1875 C-1.76354934 22.34252705 -4.29713765 25.3786472 -8 29 C-8 26 -8 26 -7 24 C-6.34 24 -5.68 24 -5 24 C-5 23.34 -5 22.68 -5 22 C-5.66 22 -6.32 22 -7 22 C-6.67 21.01 -6.34 20.02 -6 19 C-6 19.66 -6 20.32 -6 21 C-5.34 21 -4.68 21 -4 21 C-3.02888399 18.08665198 -2.77090864 15.79531813 -2.5625 12.75 C-2.19066644 8.23402145 -1.4301394 4.2904182 0 0 Z " fill="#1E221F" transform="translate(67,33)"/>
<path d="M0 0 C0.33 1.32 0.66 2.64 1 4 C2.98 4.495 2.98 4.495 5 5 C4.34 5 3.68 5 3 5 C3.14148989 6.6045556 3.28835686 8.20863767 3.4375 9.8125 C3.51871094 10.70582031 3.59992187 11.59914063 3.68359375 12.51953125 C3.93489767 15.12743559 3.93489767 15.12743559 5 18 C5.66 17.01 6.32 16.02 7 15 C7.33 16.32 7.66 17.64 8 19 C7.34 19 6.68 19 6 19 C6 19.66 6 20.32 6 21 C6.66 21 7.32 21 8 21 C8.33 22.32 8.66 23.64 9 25 C4.92044727 22.13328727 2.61685479 19.76073911 1 15 C1.05506746 11.94125304 1.44561625 9.00569502 2 6 C1.34 6 0.68 6 0 6 C0 4.02 0 2.04 0 0 Z " fill="#212721" transform="translate(7,36)"/>
<path d="M0 0 C5.65946843 6.88978765 4.67913436 16.48776344 4 25 C3.29592129 28.0332693 2.42046653 30.21825304 1 33 C-0.20350003 29.38949992 0.32027888 27.73846617 1 24 C1.37327466 20.67039 1.69012905 17.33605749 2 14 C1.67 14 1.34 14 1 14 C1.01740234 13.11248047 1.01740234 13.11248047 1.03515625 12.20703125 C1.08322386 7.99768215 1.06006883 4.1077667 0 0 Z " fill="#ACACB1" transform="translate(65,22)"/>
<path d="M0 0 C0.99 0.66 1.98 1.32 3 2 C2.67 4.31 2.34 6.62 2 9 C1.34 9 0.68 9 0 9 C-0.28875 9.61875 -0.5775 10.2375 -0.875 10.875 C-2 13 -2 13 -4 15 C-4.39764263 16.98821313 -4.73775349 18.98944339 -5 21 C-5.66 21 -6.32 21 -7 21 C-6.67 19.02 -6.34 17.04 -6 15 C-6.66 14.67 -7.32 14.34 -8 14 C-6.6875 12.5 -6.6875 12.5 -5 11 C-4.01 11 -3.02 11 -2 11 C-1.34 7.37 -0.68 3.74 0 0 Z " fill="#18221D" transform="translate(57,34)"/>
<path d="M0 0 C1.2065625 0.0309375 1.2065625 0.0309375 2.4375 0.0625 C2.81813221 2.3885857 3.15019945 4.72305264 3.4375 7.0625 C2.4375 8.0625 2.4375 8.0625 -0.0625 8.1875 C-2.5625 8.0625 -2.5625 8.0625 -3.5625 7.0625 C-3.6875 4.0625 -3.6875 4.0625 -3.5625 1.0625 C-2.5625 0.0625 -2.5625 0.0625 0 0 Z " fill="#5B7C4E" transform="translate(37.5625,21.9375)"/>
<path d="M0 0 C0.66 0.33 1.32 0.66 2 1 C2 2.65 2 4.3 2 6 C2.99 6.33 3.98 6.66 5 7 C3.68 7.33 2.36 7.66 1 8 C1.50603992 10.16874252 1.99983813 11.99967627 3 14 C2.01 13.67 1.02 13.34 0 13 C-0.99 14.485 -0.99 14.485 -2 16 C-2.99 16 -3.98 16 -5 16 C-4.731875 15.505 -4.46375 15.01 -4.1875 14.5 C-2.56124507 11.0763054 -1.30484829 7.55867715 0 4 C-2.475 5.485 -2.475 5.485 -5 7 C-3.70700306 4.11562221 -2.34058637 2.12780579 0 0 Z " fill="#252D29" transform="translate(19,11)"/>
<path d="M0 0 C0.99 0.33 1.98 0.66 3 1 C3.33 5.29 3.66 9.58 4 14 C0 12 0 12 -1 10 C-1.09472912 8.48154798 -1.1298841 6.95889616 -1.125 5.4375 C-1.12886719 4.22900391 -1.12886719 4.22900391 -1.1328125 2.99609375 C-1 1 -1 1 0 0 Z " fill="#4B6B33" transform="translate(19,32)"/>
<path d="M0 0 C0.66 1.32 1.32 2.64 2 4 C2.66 3.67 3.32 3.34 4 3 C3.67 4.65 3.34 6.3 3 8 C3.66 8 4.32 8 5 8 C5 8.66 5 9.32 5 10 C4.34 10 3.68 10 3 10 C2.34 11.65 1.68 13.3 1 15 C0.34 15 -0.32 15 -1 15 C-1.33 12.69 -1.66 10.38 -2 8 C-1.34 8 -0.68 8 0 8 C0 5.36 0 2.72 0 0 Z " fill="#718E35" transform="translate(57,47)"/>
<path d="M0 0 C5.71241466 0.38728235 8.73688282 0.87010523 13 5 C12.34 7.64 11.68 10.28 11 13 C10.67 13 10.34 13 10 13 C9.34 10.69 8.68 8.38 8 6 C7.360625 5.87625 6.72125 5.7525 6.0625 5.625 C5.381875 5.41875 4.70125 5.2125 4 5 C3.67 4.34 3.34 3.68 3 3 C2.01 2.67 1.02 2.34 0 2 C0 1.34 0 0.68 0 0 Z " fill="#61783F" transform="translate(21,15)"/>
<path d="M0 0 C6.19049884 1.20790221 9.55225416 4.96610111 13 10 C13.69921875 12.2578125 13.69921875 12.2578125 14 14 C12.68127338 13.60348083 11.37002899 13.18201309 10.0625 12.75 C9.33160156 12.51796875 8.60070312 12.2859375 7.84765625 12.046875 C6 11 6 11 5.24609375 8.890625 C5.16488281 8.26671875 5.08367188 7.6428125 5 7 C5.99 7 6.98 7 8 7 C7.236875 6.401875 6.47375 5.80375 5.6875 5.1875 C3.6516425 3.53040668 1.8021721 1.89702326 0 0 Z " fill="#9C9CA3" transform="translate(51,8)"/>
<path d="M0 0 C2.88437779 1.29299694 4.87219421 2.65941363 7 5 C6.67 5.99 6.34 6.98 6 8 C6.78923015 9.77768446 6.78923015 9.77768446 8 11.5 C9.1875 13.28125 9.1875 13.28125 10 15 C9.67 15.99 9.34 16.98 9 18 C8.69707031 17.43152344 8.39414063 16.86304687 8.08203125 16.27734375 C5.35066454 11.2432248 2.42063456 6.59342355 -1 2 C-0.67 1.34 -0.34 0.68 0 0 Z " fill="#4C582D" transform="translate(58,8)"/>
<path d="M0 0 C5.94 0.99 5.94 0.99 12 2 C11.67 2.66 11.34 3.32 11 4 C6.25 4.125 6.25 4.125 4 3 C4.66 4.32 5.32 5.64 6 7 C5.34 7.66 4.68 8.32 4 9 C3.01 9 2.02 9 1 9 C0.67 6.03 0.34 3.06 0 0 Z " fill="#467C1B" transform="translate(29,60)"/>
<path d="M0 0 C1.65 0 3.3 0 5 0 C4.34 4.29 3.68 8.58 3 13 C2.01 13 1.02 13 0 13 C0 8.71 0 4.42 0 0 Z " fill="#CAF383" transform="translate(36,36)"/>
<path d="M0 0 C2.97 0 5.94 0 9 0 C9 0.33 9 0.66 9 1 C7.02 1 5.04 1 3 1 C3 1.66 3 2.32 3 3 C5.64 3 8.28 3 11 3 C10.67 3.99 10.34 4.98 10 6 C7.03 5.67 4.06 5.34 1 5 C0.67 3.35 0.34 1.7 0 0 Z " fill="#C2EA7C" transform="translate(31,56)"/>
<path d="M0 0 C1.875 0.5625 1.875 0.5625 4 2 C5.0899227 5.05178356 6 7.74156238 6 11 C4.68 11 3.36 11 2 11 C2 9.02 2 7.04 2 5 C1.01 4.67 0.02 4.34 -1 4 C-0.67 2.68 -0.34 1.36 0 0 Z " fill="#B8E559" transform="translate(26,19)"/>
<path d="M0 0 C0.15114765 6.95279171 -3.40585007 10.17991482 -8.06640625 15.05859375 C-8.70449219 15.69925781 -9.34257812 16.33992188 -10 17 C-10 13.19654123 -8.86213669 12.22298985 -6.5 9.3125 C-5.8503125 8.50425781 -5.200625 7.69601563 -4.53125 6.86328125 C-3.77328125 5.94095703 -3.77328125 5.94095703 -3 5 C-4.32 4.67 -5.64 4.34 -7 4 C-2.25 0 -2.25 0 0 0 Z " fill="#95959D" transform="translate(19,15)"/>
<path d="M0 0 C3.57104439 1.87949705 5.54744301 3.17053157 7 7 C6.13375 6.835 5.2675 6.67 4.375 6.5 C-2.27667328 5.48303076 -2.27667328 5.48303076 -8.375 8 C-9.24125 8.66 -10.1075 9.32 -11 10 C-9.63016497 6.83884224 -9.0109362 6.0072908 -6 4 C-3.3125 3.875 -3.3125 3.875 -1 4 C-0.67 2.68 -0.34 1.36 0 0 Z " fill="#394732" transform="translate(53,10)"/>
<path d="M0 0 C0.33 0 0.66 0 1 0 C1.05416188 1.60379341 1.09286638 3.20811406 1.125 4.8125 C1.14820312 5.70582031 1.17140625 6.59914063 1.1953125 7.51953125 C1 10 1 10 -1 13 C-1.66 13 -2.32 13 -3 13 C-3.33 12.01 -3.66 11.02 -4 10 C-4.99 10.495 -4.99 10.495 -6 11 C-6 9.35 -6 7.7 -6 6 C-4.68 6 -3.36 6 -2 6 C-1.34 4.02 -0.68 2.04 0 0 Z " fill="#5D7248" transform="translate(64,41)"/>
<path d="M0 0 C0.66 0 1.32 0 2 0 C2.02685938 2.14576637 2.04633088 4.29162645 2.0625 6.4375 C2.07410156 7.63246094 2.08570313 8.82742187 2.09765625 10.05859375 C2 13 2 13 1 14 C2.65 14 4.3 14 6 14 C6 14.66 6 15.32 6 16 C3.69 16 1.38 16 -1 16 C-1 15.34 -1 14.68 -1 14 C-1.66 13.67 -2.32 13.34 -3 13 C-2.34 12.34 -1.68 11.68 -1 11 C-0.53709779 8.33757179 -0.53709779 8.33757179 -0.375 5.375 C-0.30023438 4.37210938 -0.22546875 3.36921875 -0.1484375 2.3359375 C-0.09945312 1.56507812 -0.05046875 0.79421875 0 0 Z " fill="#6AB30C" transform="translate(34,36)"/>
<path d="M0 0 C1.0625 1.875 1.0625 1.875 2 4 C1.67 4.66 1.34 5.32 1 6 C1.66 6.33 2.32 6.66 3 7 C2.01 7.99 1.02 8.98 0 10 C-1.32 9.34 -2.64 8.68 -4 8 C-3.50168276 4.31245243 -2.89932357 2.39509338 0 0 Z " fill="#4B7125" transform="translate(13,27)"/>
<path d="M0 0 C4.72463088 0.46319911 8.17057052 1.09891706 12 4 C12 4.66 12 5.32 12 6 C10.741875 6.28875 9.48375 6.5775 8.1875 6.875 C5.1460601 7.57303539 3.69330122 8.20446585 1 10 C2.36983503 6.83884224 2.9890638 6.0072908 6 4 C6 3.34 6 2.68 6 2 C4.02 2.66 2.04 3.32 0 4 C0 2.68 0 1.36 0 0 Z " fill="#262E26" transform="translate(41,6)"/>
<path d="M0 0 C0.33 0 0.66 0 1 0 C1 2.31 1 4.62 1 7 C2.65 6.67 4.3 6.34 6 6 C4.4375 7.5625 4.4375 7.5625 2 9 C-1.75 8.6875 -1.75 8.6875 -5 8 C-4.6875 6.0625 -4.6875 6.0625 -4 4 C-3.01 3.67 -2.02 3.34 -1 3 C-0.67 2.01 -0.34 1.02 0 0 Z " fill="#476D1E" transform="translate(45,61)"/>
<path d="M0 0 C2 0.6875 2 0.6875 4 2.6875 C3.67 3.3475 3.34 4.0075 3 4.6875 C3.66 5.3475 4.32 6.0075 5 6.6875 C4.01 6.6875 3.02 6.6875 2 6.6875 C2 8.3375 2 9.9875 2 11.6875 C1.67 11.6875 1.34 11.6875 1 11.6875 C1 9.3775 1 7.0675 1 4.6875 C-2.04913228 3.67638907 -2.04913228 3.67638907 -5 4.6875 C-4.625 2.75 -4.625 2.75 -4 0.6875 C-2 -0.3125 -2 -0.3125 0 0 Z " fill="#33551F" transform="translate(21,28.3125)"/>
<path d="M0 0 C0.33 0 0.66 0 1 0 C1 2.64 1 5.28 1 8 C0.34 8 -0.32 8 -1 8 C-0.67 10.31 -0.34 12.62 0 15 C0.66 15 1.32 15 2 15 C2 15.66 2 16.32 2 17 C0.35 17.66 -1.3 18.32 -3 19 C-2.85966889 17.02043559 -2.7125877 15.04134859 -2.5625 13.0625 C-2.48128906 11.96035156 -2.40007813 10.85820313 -2.31640625 9.72265625 C-2 7 -2 7 -1 6 C-1.2784375 5.0409375 -1.2784375 5.0409375 -1.5625 4.0625 C-1.7790625 3.0415625 -1.7790625 3.0415625 -2 2 C-1.34 1.34 -0.68 0.68 0 0 Z " fill="#3B561A" transform="translate(56,47)"/>
<path d="M0 0 C0.33 0 0.66 0 1 0 C0.98839844 0.98742188 0.97679687 1.97484375 0.96484375 2.9921875 C0.95582031 4.27351563 0.94679688 5.55484375 0.9375 6.875 C0.92589844 8.15117188 0.91429687 9.42734375 0.90234375 10.7421875 C0.76823431 13.88664652 0.76823431 13.88664652 2 16 C-0.475 15.01 -0.475 15.01 -3 14 C-3.29341888 8.32723489 -3.00559652 5.00932754 0 0 Z " fill="#4F613A" transform="translate(22,51)"/>
<path d="M0 0 C0.33 0 0.66 0 1 0 C1.13277344 1.22976562 1.26554688 2.45953125 1.40234375 3.7265625 C1.58064043 5.35938469 1.7590308 6.99219666 1.9375 8.625 C2.02451172 9.43324219 2.11152344 10.24148437 2.20117188 11.07421875 C2.67709537 15.41041058 3.22837189 19.70390836 4 24 C1.64046906 21.64046906 1.50858587 20.22104383 1 17 C0.34 17 -0.32 17 -1 17 C-0.67 11.39 -0.34 5.78 0 0 Z " fill="#63920E" transform="translate(3,31)"/>
<path d="M0 0 C1.24546405 2.49092811 0.7767578 3.41080733 0 6 C0.33 6 0.66 6 1 6 C1 8.31 1 10.62 1 13 C0.01 13.495 0.01 13.495 -1 14 C-1.12375 12.865625 -1.2475 11.73125 -1.375 10.5625 C-1.58125 9.386875 -1.7875 8.21125 -2 7 C-2.66 6.67 -3.32 6.34 -4 6 C-3.34 6 -2.68 6 -2 6 C-2.66 4.35 -3.32 2.7 -4 1 C-2.68 0.67 -1.36 0.34 0 0 Z " fill="#3A651D" transform="translate(54,29)"/>
<path d="M0 0 C0.99 1.485 0.99 1.485 2 3 C2.86625 3.825 3.7325 4.65 4.625 5.5 C7 8 7 8 7 11 C6.6937566 12.33981486 6.36548445 13.67511887 6 15 C3.47740939 13.02579865 3.0070192 12.03254358 2.3125 8.8125 C2.209375 7.884375 2.10625 6.95625 2 6 C1.34 6 0.68 6 0 6 C0 4.02 0 2.04 0 0 Z " fill="#1C2C22" transform="translate(23,50)"/>
<path d="M0 0 C1.32 0 2.64 0 4 0 C4.33 0.99 4.66 1.98 5 3 C2.84656811 6.23014784 1.72940389 7.75686537 -2 9 C-2 7.35 -2 5.7 -2 4 C-1.34 4 -0.68 4 0 4 C0 2.68 0 1.36 0 0 Z " fill="#477826" transform="translate(46,50)"/>
<path d="M0 0 C1 2 1 2 1.3125 4.375 C2.15018551 7.57343559 3.54177921 8.85896899 6 11 C5.67 11.66 5.34 12.32 5 13 C4.46375 12.34 3.9275 11.68 3.375 11 C1.10041408 8.68975201 1.10041408 8.68975201 -2.25 8.75 C-3.61125 8.87375 -3.61125 8.87375 -5 9 C-5 7.35 -5 5.7 -5 4 C-4.67 4.99 -4.34 5.98 -4 7 C-3.34 7 -2.68 7 -2 7 C-2.061875 5.824375 -2.061875 5.824375 -2.125 4.625 C-2 2 -2 2 0 0 Z " fill="#536E30" transform="translate(16,37)"/>
<path d="M0 0 C1.65 0 3.3 0 5 0 C3.33248852 3.94139078 0.77289351 6.7892812 -2 10 C-2.6875 8.375 -2.6875 8.375 -3 6 C-1.5625 2.75 -1.5625 2.75 0 0 Z " fill="#3D4E29" transform="translate(11,20)"/>
<path d="M0 0 C0 0.66 0 1.32 0 2 C-1.670625 2.12375 -1.670625 2.12375 -3.375 2.25 C-5.169375 2.62125 -5.169375 2.62125 -7 3 C-8.3169667 4.88370471 -8.3169667 4.88370471 -9 7 C-9.99 7.66 -10.98 8.32 -12 9 C-12.33 7.68 -12.66 6.36 -13 5 C-8.68660704 1.42677506 -5.86197356 -0.71487482 0 0 Z " fill="#6F8843" transform="translate(54,15)"/>
<path d="M0 0 C1.32 0 2.64 0 4 0 C3.67 2.31 3.34 4.62 3 7 C1.68 7.33 0.36 7.66 -1 8 C-1.04241723 5.66705225 -1.04092937 3.33297433 -1 1 C-0.67 0.67 -0.34 0.34 0 0 Z " fill="#778172" transform="translate(47,60)"/>
<path d="M0 0 C0.33 0 0.66 0 1 0 C1.16435547 1.04800781 1.16435547 1.04800781 1.33203125 2.1171875 C1.49058594 3.02726562 1.64914063 3.93734375 1.8125 4.875 C1.96332031 5.77992187 2.11414063 6.68484375 2.26953125 7.6171875 C2.83051301 10.34412478 2.83051301 10.34412478 6 12 C5.67 13.32 5.34 14.64 5 16 C-0.88183807 9.92560175 -0.88183807 9.92560175 -1.375 6.0625 C-1.25125 5.381875 -1.1275 4.70125 -1 4 C-1.99 4.495 -1.99 4.495 -3 5 C-1.125 1.125 -1.125 1.125 0 0 Z " fill="#13181F" transform="translate(17,34)"/>
<path d="M0 0 C2 3 2 3 2 5 C1.34 5 0.68 5 0 5 C-0.433125 6.1446875 -0.433125 6.1446875 -0.875 7.3125 C-2 10 -2 10 -4 13 C-4.99 12.67 -5.98 12.34 -7 12 C-4.69 8.04 -2.38 4.08 0 0 Z " fill="#719B28" transform="translate(68,52)"/>
<path d="M0 0 C0.66 0 1.32 0 2 0 C2.66 1.65 3.32 3.3 4 5 C4.66 4.67 5.32 4.34 6 4 C7.125 6.8125 7.125 6.8125 8 10 C7.01 11.485 7.01 11.485 6 13 C2.85487785 8.70166639 1.24303439 5.17930997 0 0 Z " fill="#546738" transform="translate(2,48)"/>
<path d="M0 0 C0.33 0 0.66 0 1 0 C1.66 2.64 2.32 5.28 3 8 C2.34 8 1.68 8 1 8 C-0.36161311 8.96113866 -1.69855198 9.95884159 -3 11 C-2.67 9.02 -2.34 7.04 -2 5 C-2.66 4.67 -3.32 4.34 -4 4 C-3.67 3.34 -3.34 2.68 -3 2 C-2.01 2 -1.02 2 0 2 C0 1.34 0 0.68 0 0 Z " fill="#19271B" transform="translate(56,25)"/>
<path d="M0 0 C0.66 0 1.32 0 2 0 C2.3125 2.75 2.3125 2.75 2 6 C-0.5 8.375 -0.5 8.375 -3 10 C-2.34 8.35 -1.68 6.7 -1 5 C-3.475 4.01 -3.475 4.01 -6 3 C-3.50907189 1.75453595 -2.58919267 2.2232422 0 3 C0 2.01 0 1.02 0 0 Z " fill="#A6BB86" transform="translate(32,41)"/>
<path d="M0 0 C1.32 0 2.64 0 4 0 C4 0.66 4 1.32 4 2 C4.99 2.33 5.98 2.66 7 3 C5.73160474 3.50615298 4.46016898 4.00469099 3.1875 4.5 C2.12595703 4.91765625 2.12595703 4.91765625 1.04296875 5.34375 C-1 6 -1 6 -4 6 C-2.84826645 3.53199953 -1.95216435 1.95216435 0 0 Z " fill="#97AE76" transform="translate(43,8)"/>
<path d="M0 0 C0.99 0 1.98 0 3 0 C3 0.66 3 1.32 3 2 C5.64 2.33 8.28 2.66 11 3 C11 3.33 11 3.66 11 4 C8.03 4 5.06 4 2 4 C1.67 4.66 1.34 5.32 1 6 C1 5.34 1 4.68 1 4 C0.34 4 -0.32 4 -1 4 C-0.67 2.68 -0.34 1.36 0 0 Z " fill="#B0F630" transform="translate(30,50)"/>
<path d="M0 0 C0.7425 0.2475 1.485 0.495 2.25 0.75 C2.25 1.08 2.25 1.41 2.25 1.75 C0.6 1.75 -1.05 1.75 -2.75 1.75 C-2.75 3.4 -2.75 5.05 -2.75 6.75 C-3.74 7.245 -3.74 7.245 -4.75 7.75 C-4.75 7.09 -4.75 6.43 -4.75 5.75 C-5.41 5.75 -6.07 5.75 -6.75 5.75 C-7.08 6.41 -7.41 7.07 -7.75 7.75 C-7.36094382 5.02660672 -6.68262433 3.66096786 -5 1.4375 C-2.75 -0.25 -2.75 -0.25 0 0 Z " fill="#5C8333" transform="translate(46.75,35.25)"/>
<path d="M0 0 C1.35158203 0.15275391 1.35158203 0.15275391 2.73046875 0.30859375 C3.41753906 0.39238281 4.10460938 0.47617187 4.8125 0.5625 C4.8125 1.2225 4.8125 1.8825 4.8125 2.5625 C4.20921875 2.55089844 3.6059375 2.53929687 2.984375 2.52734375 C2.18515625 2.51832031 1.3859375 2.50929687 0.5625 2.5 C-0.22640625 2.48839844 -1.0153125 2.47679687 -1.828125 2.46484375 C-4.09441002 2.55864694 -6.0163895 2.93008937 -8.1875 3.5625 C-8.1875 2.5725 -8.1875 1.5825 -8.1875 0.5625 C-4.98734144 -0.50421952 -3.30205706 -0.38595472 0 0 Z " fill="#B1E14A" transform="translate(47.1875,32.4375)"/>
<path d="M0 0 C-0.88776002 3.69900008 -1.94581864 7.34550461 -3 11 C-3.66 11 -4.32 11 -5 11 C-5.36717663 3.5340751 -5.36717663 3.5340751 -3.625 1 C-2 0 -2 0 0 0 Z " fill="#C4F069" transform="translate(49,19)"/>
<path d="M0 0 C4.95696581 1.23924145 7.11658466 2.78577758 10 7 C6.40142046 7 4.90548882 6.04169485 2 4 C2 3.34 2 2.68 2 2 C1.34 2 0.68 2 0 2 C0 1.34 0 0.68 0 0 Z " fill="#909E51" transform="translate(49,2)"/>
<path d="M0 0 C0.86625 0.5259375 0.86625 0.5259375 1.75 1.0625 C4.35801776 2.14917407 5.39417629 1.93065133 8 1 C7.74438677 3.3431213 7.40729228 5.67843403 7 8 C6.01 8.495 6.01 8.495 5 9 C4.54625 8.175 4.0925 7.35 3.625 6.5 C2.820625 5.2625 2.820625 5.2625 2 4 C1.34 4 0.68 4 0 4 C0 2.68 0 1.36 0 0 Z " fill="#42622E" transform="translate(23,46)"/>
<path d="M0 0 C1.0326802 2.78823655 1.04509293 3.8677274 0.0625 6.75 C-0.288125 7.4925 -0.63875 8.235 -1 9 C-1.66 9 -2.32 9 -3 9 C-3 9.66 -3 10.32 -3 11 C-3.66 10.67 -4.32 10.34 -5 10 C-3.49760034 6.38058265 -2.17854707 3.2678206 0 0 Z " fill="#829345" transform="translate(7,18)"/>
<path d="M0 0 C6.27 0.33 12.54 0.66 19 1 C19 1.33 19 1.66 19 2 C10.585 2.495 10.585 2.495 2 3 C2 2.34 2 1.68 2 1 C1.34 0.67 0.68 0.34 0 0 Z " fill="#9DCC37" transform="translate(27,73)"/>
<path d="M0 0 C2.475 0.99 2.475 0.99 5 2 C4.67 2.66 4.34 3.32 4 4 C4.99 4.66 5.98 5.32 7 6 C6.01 6.66 5.02 7.32 4 8 C4 7.34 4 6.68 4 6 C3.01 6.33 2.02 6.66 1 7 C0.31292445 4.50935112 0 2.62113708 0 0 Z " fill="#739850" transform="translate(44,44)"/>
<path d="M0 0 C0.99 0.495 0.99 0.495 2 1 C2.4140625 3.06640625 2.4140625 3.06640625 2.625 5.5625 C2.69976563 6.38878906 2.77453125 7.21507812 2.8515625 8.06640625 C2.92503906 9.02353516 2.92503906 9.02353516 3 10 C2.01 9.67 1.02 9.34 0 9 C0 6.03 0 3.06 0 0 Z " fill="#8B8F96" transform="translate(22,56)"/>
<path d="M0 0 C0.33 0.66 0.66 1.32 1 2 C0.67 2.66 0.34 3.32 0 4 C-0.99 4 -1.98 4 -3 4 C-3.33 4.99 -3.66 5.98 -4 7 C-4.99 6.67 -5.98 6.34 -7 6 C-6.67 4.68 -6.34 3.36 -6 2 C-4.7934375 1.7834375 -4.7934375 1.7834375 -3.5625 1.5625 C-1.07896294 1.25864751 -1.07896294 1.25864751 0 0 Z " fill="#768A65" transform="translate(56,23)"/>
<path d="M0 0 C3 1 3 1 4.25 3.3125 C5.0275526 6.09873015 4.98726527 7.33438378 4 10 C0.06153846 5.69230769 0.06153846 5.69230769 -0.25 2.1875 C-0.1675 1.465625 -0.085 0.74375 0 0 Z " fill="#353C31" transform="translate(62,21)"/>
<path d="M0 0 C0.66 0 1.32 0 2 0 C2 1.98 2 3.96 2 6 C3.32 6 4.64 6 6 6 C6.33 5.34 6.66 4.68 7 4 C7.33 4.99 7.66 5.98 8 7 C1.25 7.125 1.25 7.125 -1 6 C-0.67 4.02 -0.34 2.04 0 0 Z " fill="#536D30" transform="translate(26,24)"/>
<path d="M0 0 C0 0.66 0 1.32 0 2 C-4.95 3.485 -4.95 3.485 -10 5 C-10 4.34 -10 3.68 -10 3 C-9.34 3 -8.68 3 -8 3 C-8 2.34 -8 1.68 -8 1 C-2.25 -1.125 -2.25 -1.125 0 0 Z " fill="#90A352" transform="translate(33,1)"/>
<path d="M0 0 C0.99 0.33 1.98 0.66 3 1 C-1.75 5.875 -1.75 5.875 -4 7 C-4.66 6.34 -5.32 5.68 -6 5 C-1.60546875 0.99609375 -1.60546875 0.99609375 0 0 Z " fill="#9AA658" transform="translate(60,64)"/>
<path d="M0 0 C2.62187494 1.04874998 3.79371361 1.64931313 5.25 4.125 C5.4975 4.74375 5.745 5.3625 6 6 C4.35 6.33 2.7 6.66 1 7 C0 4 0 4 0 0 Z " fill="#253220" transform="translate(15,45)"/>
<path d="M0 0 C0.99 0.33 1.98 0.66 3 1 C3.042721 2.66611905 3.04063832 4.33382885 3 6 C2 7 2 7 -0.5625 7.0625 C-1.7690625 7.0315625 -1.7690625 7.0315625 -3 7 C-3 6.34 -3 5.68 -3 5 C-1.68 5 -0.36 5 1 5 C0.67 3.35 0.34 1.7 0 0 Z " fill="#3F6D1B" transform="translate(38,23)"/>
<path d="M0 0 C-0.33 2.31 -0.66 4.62 -1 7 C-2.98 6.34 -4.96 5.68 -7 5 C-2.25 0 -2.25 0 0 0 Z " fill="#7D807F" transform="translate(19,15)"/>
<path d="M0 0 C1.98 0 3.96 0 6 0 C5.34 1.32 4.68 2.64 4 4 C3.01 4 2.02 4 1 4 C0.67 2.68 0.34 1.36 0 0 Z " fill="#466B19" transform="translate(35,9)"/>
<path d="M0 0 C0 0.66 0 1.32 0 2 C-0.66 2 -1.32 2 -2 2 C-2.33 2.99 -2.66 3.98 -3 5 C-5.5625 6.1875 -5.5625 6.1875 -8 7 C-4.13157895 0 -4.13157895 0 0 0 Z " fill="#9EA975" transform="translate(25,2)"/>
<path d="M0 0 C0.33 0.99 0.66 1.98 1 3 C0.01 4.485 0.01 4.485 -1 6 C-3.625 6.1875 -3.625 6.1875 -6 6 C-4 4 -2 2 0 0 Z " fill="#162120" transform="translate(49,55)"/>
<path d="M0 0 C2.82066016 3.18857235 3.82213241 5.73117787 4 10 C2.5625 12.375 2.5625 12.375 1 14 C1.01740234 13.11248047 1.01740234 13.11248047 1.03515625 12.20703125 C1.08322386 7.99768215 1.06006883 4.1077667 0 0 Z " fill="#A5A5AE" transform="translate(65,22)"/>
<path d="M0 0 C0 2.64 0 5.28 0 8 C-0.66 8 -1.32 8 -2 8 C-2.33 5.69 -2.66 3.38 -3 1 C-1 0 -1 0 0 0 Z " fill="#4D7B18" transform="translate(58,54)"/>
<path d="M0 0 C0.66 0 1.32 0 2 0 C1.75 2.375 1.75 2.375 1 5 C-1.0625 6.3125 -1.0625 6.3125 -3 7 C-3 6.01 -3 5.02 -3 4 C-2.34 3.67 -1.68 3.34 -1 3 C-0.67 2.01 -0.34 1.02 0 0 Z " fill="#8AC545" transform="translate(50,42)"/>
<path d="M0 0 C0.598125 0.309375 1.19625 0.61875 1.8125 0.9375 C4.08956772 2.10209704 4.08956772 2.10209704 7 3 C6.01 3.99 5.02 4.98 4 6 C2.68 5.34 1.36 4.68 0 4 C0 2.68 0 1.36 0 0 Z " fill="#3D443E" transform="translate(9,31)"/>
<path d="M0 0 C1.65 0 3.3 0 5 0 C4.67 0.99 4.34 1.98 4 3 C3.34 3 2.68 3 2 3 C2 3.66 2 4.32 2 5 C1.01 4.67 0.02 4.34 -1 4 C-0.67 2.68 -0.34 1.36 0 0 Z " fill="#899C78" transform="translate(20,18)"/>
<path d="M0 0 C0.33 1.65 0.66 3.3 1 5 C0.01 4.34 -0.98 3.68 -2 3 C-4.33199388 2.92094936 -6.66832622 2.91201231 -9 3 C-6.01800145 0.01800145 -4.21244839 0 0 0 Z " fill="#1A1E1D" transform="translate(34,6)"/>
<path d="M0 0 C0.33 0 0.66 0 1 0 C1 2.64 1 5.28 1 8 C0.01 8.33 -0.98 8.66 -2 9 C-2 7 -2 7 -1 6 C-1.2784375 5.0409375 -1.2784375 5.0409375 -1.5625 4.0625 C-1.7790625 3.0415625 -1.7790625 3.0415625 -2 2 C-1.34 1.34 -0.68 0.68 0 0 Z " fill="#25341F" transform="translate(56,47)"/>
<path d="M0 0 C2 1 2 1 2.8515625 3.06640625 C3.10679688 3.89011719 3.36203125 4.71382812 3.625 5.5625 C3.88539062 6.38878906 4.14578125 7.21507812 4.4140625 8.06640625 C4.60742188 8.70449219 4.80078125 9.34257813 5 10 C3.046875 9.2578125 3.046875 9.2578125 1 8 C0.16113831 5.32209537 0.18233586 2.8262059 0 0 Z " fill="#71766D" transform="translate(6,28)"/>
<path d="M0 0 C0.33 0 0.66 0 1 0 C1 1.65 1 3.3 1 5 C-0.32 5.33 -1.64 5.66 -3 6 C-3.99 4.68 -4.98 3.36 -6 2 C-4.35 2 -2.7 2 -1 2 C-0.67 1.34 -0.34 0.68 0 0 Z " fill="#252A2E" transform="translate(65,31)"/>
<path d="M0 0 C2.97 0.495 2.97 0.495 6 1 C5.67 2.32 5.34 3.64 5 5 C4.34 5 3.68 5 3 5 C2.67 4.34 2.34 3.68 2 3 C1.34 2.67 0.68 2.34 0 2 C0 1.34 0 0.68 0 0 Z " fill="#93A283" transform="translate(50,18)"/>
<path d="M0 0 C0.66 0.33 1.32 0.66 2 1 C2 1.99 2 2.98 2 4 C0.824375 4.4640625 0.824375 4.4640625 -0.375 4.9375 C-2.92330128 5.92875038 -2.92330128 5.92875038 -5 7 C-3.70700306 4.11562221 -2.34058637 2.12780579 0 0 Z " fill="#38393E" transform="translate(19,11)"/>
<path d="M0 0 C1.65 1.65 3.3 3.3 5 5 C4.67 5.66 4.34 6.32 4 7 C2.68 6.67 1.36 6.34 0 6 C0 4.02 0 2.04 0 0 Z " fill="#A4F519" transform="translate(39,43)"/>
<path d="M0 0 C1.32 0.99 2.64 1.98 4 3 C3.67 3.99 3.34 4.98 3 6 C1.35 5.01 -0.3 4.02 -2 3 C-1.34 2.67 -0.68 2.34 0 2 C0 1.34 0 0.68 0 0 Z " fill="#647F41" transform="translate(59,19)"/>
</svg>
